HIERARCHY
ROOT Root
{
	OFFSET 0.000000 0.352363 0.875427
	CHANNELS 6 Xposition Yposition Zposition Xrotation Yrotation Zrotation
	JOINT Spine1
	{
		OFFSET 0.000000 -0.400663 0.428243
		CHANNELS 3 Xrotation Yrotation Zrotation
		JOINT Spine2
		{
			OFFSET 0.000000 0.135942 1.105810
			CHANNELS 3 Xrotation Yrotation Zrotation
			JOINT Spine3
			{
				OFFSET 0.000000 0.301520 1.266560
				CHANNELS 3 Xrotation Yrotation Zrotation
				JOINT Neck
				{
					OFFSET 0.000000 -0.129153 1.732410
					CHANNELS 3 Xrotation Yrotation Zrotation
					JOINT Head
					{
						OFFSET 0.000000 0.044480 1.120100
						CHANNELS 3 Xrotation Yrotation Zrotation
						JOINT Jaw
						{
							OFFSET 0.000000 -0.457571 0.024380
							CHANNELS 3 Xrotation Yrotation Zrotation
							JOINT Tongue1
							{
								OFFSET 0.000000 0.016815 -0.287080
								CHANNELS 3 Xrotation Yrotation Zrotation
								JOINT Tongue2
								{
									OFFSET 0.000000 -0.274266 0.057470
									CHANNELS 3 Xrotation Yrotation Zrotation
									JOINT Tongue3
									{
										OFFSET 0.000000 -0.222002 -0.016090
										CHANNELS 3 Xrotation Yrotation Zrotation
										End Site
										{
											OFFSET 0.000000 -0.135904 -0.044510
										}
									}
								}
							}
						}
						JOINT Eye_L
						{
							OFFSET 0.279265 -0.951883 0.343950
							CHANNELS 3 Xrotation Yrotation Zrotation
							End Site
							{
								OFFSET -0.012164 -0.380586 0.022210
							}
						}
						JOINT Eye_R
						{
							OFFSET -0.279265 -0.951883 0.343950
							CHANNELS 3 Xrotation Yrotation Zrotation
							End Site
							{
								OFFSET 0.012164 -0.380586 0.022210
							}
						}
					}
				}
				JOINT Clavicle_L
				{
					OFFSET 0.313450 -0.808739 1.029290
					CHANNELS 3 Xrotation Yrotation Zrotation
					JOINT UpArm_L
					{
						OFFSET 1.283440 0.544581 0.163020
						CHANNELS 3 Xrotation Yrotation Zrotation
						JOINT LoArm_L
						{
							OFFSET 1.958760 0.023329 -0.275060
							CHANNELS 3 Xrotation Yrotation Zrotation
							JOINT Hand_L
							{
								OFFSET 2.301220 0.076212 -0.152140
								CHANNELS 3 Xrotation Yrotation Zrotation
								JOINT Thumb1_L
								{
									OFFSET 0.193610 -0.266188 -0.131250
									CHANNELS 3 Xrotation Yrotation Zrotation
									JOINT Thumb2_L
									{
										OFFSET 0.315910 -0.184280 -0.122770
										CHANNELS 3 Xrotation Yrotation Zrotation
										JOINT Thumb3_L
										{
											OFFSET 0.319720 -0.125806 -0.005850
											CHANNELS 3 Xrotation Yrotation Zrotation
											End Site
											{
												OFFSET 0.335140 -0.065732 -0.008710
											}
										}
									}
								}
								JOINT Index1_L
								{
									OFFSET 0.963510 -0.378984 0.000840
									CHANNELS 3 Xrotation Yrotation Zrotation
									JOINT Index2_L
									{
										OFFSET 0.219640 -0.044975 -0.012370
										CHANNELS 3 Xrotation Yrotation Zrotation
										JOINT Index3_L
										{
											OFFSET 0.216170 -0.022489 -0.004380
											CHANNELS 3 Xrotation Yrotation Zrotation
											End Site
											{
												OFFSET 0.238880 -0.010270 -0.004790
											}
										}
									}
								}
								JOINT Middle1_L
								{
									OFFSET 0.992980 -0.198826 0.031250
									CHANNELS 3 Xrotation Yrotation Zrotation
									JOINT Middle2_L
									{
										OFFSET 0.255850 -0.017332 -0.012950
										CHANNELS 3 Xrotation Yrotation Zrotation
										JOINT Middle3_L
										{
											OFFSET 0.272930 -0.015217 -0.005410
											CHANNELS 3 Xrotation Yrotation Zrotation
											End Site
											{
												OFFSET 0.247420 -0.001119 -0.004880
											}
										}
									}
								}
								JOINT Ring1_L
								{
									OFFSET 0.969050 0.014832 -0.001960
									CHANNELS 3 Xrotation Yrotation Zrotation
									JOINT Ring2_L
									{
										OFFSET 0.245260 -0.019858 -0.007880
										CHANNELS 3 Xrotation Yrotation Zrotation
										JOINT Ring3_L
										{
											OFFSET 0.241990 -0.010849 0.000000
											CHANNELS 3 Xrotation Yrotation Zrotation
											End Site
											{
												OFFSET 0.224930 -0.023035 0.000000
											}
										}
									}
								}
								JOINT Pinky1_L
								{
									OFFSET 0.968280 0.203728 -0.114180
									CHANNELS 3 Xrotation Yrotation Zrotation
									JOINT Pinky2_L
									{
										OFFSET 0.196180 0.003678 -0.007890
										CHANNELS 3 Xrotation Yrotation Zrotation
										JOINT Pinky3_L
										{
											OFFSET 0.125930 -0.006331 0.000000
											CHANNELS 3 Xrotation Yrotation Zrotation
											End Site
											{
												OFFSET 0.148460 -0.013566 0.000000
											}
										}
									}
								}
							}
						}
					}
				}
				JOINT Clavicle_R
				{
					OFFSET -0.313450 -0.808739 1.029290
					CHANNELS 3 Xrotation Yrotation Zrotation
					JOINT UpArm_R
					{
						OFFSET -1.283440 0.544581 0.163020
						CHANNELS 3 Xrotation Yrotation Zrotation
						JOINT LoArm_R
						{
							OFFSET -1.958760 0.023329 -0.275060
							CHANNELS 3 Xrotation Yrotation Zrotation
							JOINT Hand_R
							{
								OFFSET -2.301220 0.076212 -0.152140
								CHANNELS 3 Xrotation Yrotation Zrotation
								JOINT Thumb1_R
								{
									OFFSET -0.193610 -0.266188 -0.131250
									CHANNELS 3 Xrotation Yrotation Zrotation
									JOINT Thumb2_R
									{
										OFFSET -0.315910 -0.184280 -0.122770
										CHANNELS 3 Xrotation Yrotation Zrotation
										JOINT Thumb3_R
										{
											OFFSET -0.319720 -0.125806 -0.005850
											CHANNELS 3 Xrotation Yrotation Zrotation
											End Site
											{
												OFFSET -0.335140 -0.065732 -0.008710
											}
										}
									}
								}
								JOINT Index1_R
								{
									OFFSET -0.963510 -0.378984 0.000840
									CHANNELS 3 Xrotation Yrotation Zrotation
									JOINT Index2_R
									{
										OFFSET -0.219640 -0.044975 -0.012370
										CHANNELS 3 Xrotation Yrotation Zrotation
										JOINT Index3_R
										{
											OFFSET -0.216170 -0.022489 -0.004380
											CHANNELS 3 Xrotation Yrotation Zrotation
											End Site
											{
												OFFSET -0.238880 -0.010270 -0.004790
											}
										}
									}
								}
								JOINT Middle1_R
								{
									OFFSET -0.992980 -0.198826 0.031250
									CHANNELS 3 Xrotation Yrotation Zrotation
									JOINT Middle2_R
									{
										OFFSET -0.255850 -0.017332 -0.012950
										CHANNELS 3 Xrotation Yrotation Zrotation
										JOINT Middle3_R
										{
											OFFSET -0.272930 -0.015217 -0.005410
											CHANNELS 3 Xrotation Yrotation Zrotation
											End Site
											{
												OFFSET -0.247420 -0.001119 -0.004880
											}
										}
									}
								}
								JOINT Ring1_R
								{
									OFFSET -0.969050 0.014832 -0.001960
									CHANNELS 3 Xrotation Yrotation Zrotation
									JOINT Ring2_R
									{
										OFFSET -0.245260 -0.019858 -0.007880
										CHANNELS 3 Xrotation Yrotation Zrotation
										JOINT Ring3_R
										{
											OFFSET -0.241990 -0.010849 0.000000
											CHANNELS 3 Xrotation Yrotation Zrotation
											End Site
											{
												OFFSET -0.224930 -0.023035 0.000000
											}
										}
									}
								}
								JOINT Pinky1_R
								{
									OFFSET -0.968280 0.203728 -0.114180
									CHANNELS 3 Xrotation Yrotation Zrotation
									JOINT Pinky2_R
									{
										OFFSET -0.196180 0.003678 -0.007890
										CHANNELS 3 Xrotation Yrotation Zrotation
										JOINT Pinky3_R
										{
											OFFSET -0.125930 -0.006331 0.000000
											CHANNELS 3 Xrotation Yrotation Zrotation
											End Site
											{
												OFFSET -0.148460 -0.013566 0.000000
											}
										}
									}
								}
							}
						}
					}
				}
			}
		}
	}
	JOINT Hips
	{
		OFFSET 0.000000 -0.400663 0.428243
		CHANNELS 3 Xrotation Yrotation Zrotation
		JOINT UpLeg_L
		{
			OFFSET 0.954010 -0.130739 -1.021498
			CHANNELS 3 Xrotation Yrotation Zrotation
			JOINT LoLeg_L
			{
				OFFSET -0.132644 0.019605 -3.833982
				CHANNELS 3 Xrotation Yrotation Zrotation
				JOINT Foot_L
				{
					OFFSET -0.087360 0.224370 -4.030640
					CHANNELS 3 Xrotation Yrotation Zrotation
					JOINT Toe_L
					{
						OFFSET -0.004162 -1.133176 -0.603280
						CHANNELS 3 Xrotation Yrotation Zrotation
						End Site
						{
							OFFSET 0.043066 -0.624320 -0.003510
						}
					}
				}
			}
		}
		JOINT UpLeg_R
		{
			OFFSET -0.954010 -0.130739 -1.021498
			CHANNELS 3 Xrotation Yrotation Zrotation
			JOINT LoLeg_R
			{
				OFFSET 0.132645 0.019605 -3.833982
				CHANNELS 3 Xrotation Yrotation Zrotation
				JOINT Foot_R
				{
					OFFSET 0.087359 0.224370 -4.030640
					CHANNELS 3 Xrotation Yrotation Zrotation
					JOINT Toe_R
					{
						OFFSET 0.004162 -1.133176 -0.603280
						CHANNELS 3 Xrotation Yrotation Zrotation
						End Site
						{
							OFFSET -0.043066 -0.624320 -0.003510
						}
					}
				}
			}
		}
	}
}
MOTION
Frames: 1
Frame Time: 0.041667
-0.369495 1.102793 8.302121 5.818180 0.560274 42.920612 -0.000003 -0.000003 -0.000002 15.398127 2.325927 -13.456458 25.332555 -21.511291 -6.685709 -19.474170 6.046630 22.243419 20.744744 8.542731 17.274139 -0.000005 0.000001 -0.000000 0.000003 0.000000 0.000001 -0.000008 0.000001 -0.000002 0.000010 0.000001 0.000000 0.000000 0.000000 0.000001 -0.000002 0.000002 0.000004 2.272265 1.052112 -11.556619 22.024088 5.068054 -25.061434 -20.824789 -9.586171 -119.298939 -5.634343 15.757405 5.541530 -0.000001 0.000007 -0.000004 0.000000 -0.000003 0.000004 -0.000001 0.000002 -0.000002 0.000002 0.000000 0.000003 -0.000004 0.000000 0.000001 -0.000004 0.000003 -0.000001 0.000000 -0.000002 0.000002 0.000000 0.000000 -0.000003 0.000001 -0.000003 -0.000000 -0.000001 0.000002 0.000002 0.000003 -0.000001 -0.000008 0.000001 -0.000001 0.000005 -0.000000 -0.000004 -0.000003 -0.000001 0.000001 0.000004 -0.000000 -0.000001 0.000002 4.221767 -14.844556 12.502920 32.449430 -39.742009 -26.291095 -14.725213 22.655937 98.445641 -5.589192 -9.390956 -4.868093 -0.000003 -0.000006 0.000005 -0.000004 -0.000004 -0.000002 0.000002 0.000000 -0.000001 -0.000002 -0.000000 0.000004 0.000000 0.000001 -0.000003 0.000000 -0.000001 0.000001 -0.000003 0.000000 0.000001 0.000002 -0.000001 0.000001 0.000001 -0.000004 -0.000003 -0.000005 0.000000 0.000004 0.000004 0.000002 0.000003 0.000005 0.000000 -0.000003 -0.000004 0.000001 0.000003 0.000002 -0.000000 0.000002 0.000000 0.000001 -0.000001 0.000002 -0.000002 -0.000002 30.180547 5.399405 21.828096 70.201449 1.865615 -11.222548 4.328944 -23.686476 1.400436 -0.000006 -0.000007 0.000005 -36.161832 -3.058504 -2.723758 19.848084 -1.725350 2.141859 -2.711592 23.100214 -0.027625 -0.000001 0.000001 0.000000 
